<svg width="60" height="65" viewBox="0 0 60 65" fill="none" xmlns="http://www.w3.org/2000/svg">
<path d="M37.973 14.0449C39.7546 12.4253 42.4817 12.5022 44.1703 14.1807L44.3304 14.3477L58.0804 29.4727C59.6408 31.1891 59.6408 33.8109 58.0804 35.5273L44.3304 50.6523C42.6587 52.4913 39.812 52.6269 37.973 50.9551C36.1341 49.2833 35.9985 46.4366 37.6703 44.5977L48.6674 32.5L37.6703 20.4023L37.5189 20.2266C36.0089 18.3862 36.1916 15.6644 37.973 14.0449Z" fill="#632911"/>
<path d="M54.75 28C57.2353 28 59.25 30.0147 59.25 32.5C59.25 34.9853 57.2353 37 54.75 37H21.75C19.2647 37 17.25 34.9853 17.25 32.5C17.25 30.0147 19.2647 28 21.75 28H54.75Z" fill="#632911"/>
<path d="M0.75 53.6754V11.3248C0.750047 8.65795 1.70932 6.02425 3.53125 4.02011C5.36622 2.00164 7.95194 0.774994 10.75 0.774994H21.75C24.2353 0.774994 26.25 2.78971 26.25 5.27499C26.25 7.76028 24.2353 9.77499 21.75 9.77499H10.75C10.6307 9.77499 10.4184 9.82311 10.1904 10.0738C9.94956 10.3388 9.75005 10.7827 9.75 11.3248V53.6754C9.7501 54.2174 9.94958 54.6614 10.1904 54.9264C10.4183 55.177 10.6307 55.2252 10.75 55.2252H21.75L21.9814 55.231C24.3592 55.3515 26.25 57.3175 26.25 59.7252C26.2499 62.1328 24.3591 64.0989 21.9814 64.2193L21.75 64.2252H10.75C7.95196 64.2252 5.36622 62.9985 3.53125 60.9801C1.70934 58.976 0.750094 56.3422 0.75 53.6754Z" fill="#632911"/>
</svg>
